<?xml version="1.0" encoding="UTF-8"?>
<svg width="32px" height="32px" viewBox="0 0 32 32" version="1.1" xmlns="http://www.w3.org/2000/svg" xmlns:xlink="http://www.w3.org/1999/xlink">
    <!-- Generator: Sketch 50 (54983) - http://www.bohemiancoding.com/sketch -->
    <title>aperture</title>
    <desc>Created with Sketch.</desc>
    <defs>
        <linearGradient x1="100%" y1="0%" x2="0%" y2="100%" id="linearGradient-1">
            <stop stop-color="#00FFBE" offset="0%"></stop>
            <stop stop-color="#7247FF" offset="100%"></stop>
        </linearGradient>
    </defs>
    <g id="Branding" stroke="none" stroke-width="1" fill="none" fill-rule="evenodd">
        <g id="Desktop-HD-Copy" transform="translate(-660.000000, -385.000000)" fill="url(#linearGradient-1)">
            <path d="M676.001451,385 C676.553736,385 677.001451,385.447715 677.001451,386 C677.001451,386.552285 676.553736,387 676.001451,387 C675.449166,387 675.001451,386.552285 675.001451,386 C675.001451,385.447715 675.449166,385 676.001451,385 Z M680.142931,385.545236 C680.676398,385.688178 680.99298,386.236515 680.850038,386.769981 C680.707096,387.303447 680.158759,387.62003 679.625293,387.477088 C679.091827,387.334146 678.775245,386.785809 678.918187,386.252343 C679.061128,385.718877 679.609465,385.402294 680.142931,385.545236 Z M684.002177,387.143788 C684.480469,387.41993 684.644345,388.031521 684.368202,388.509813 C684.09206,388.988106 683.480469,389.151981 683.002177,388.875839 C682.523884,388.599696 682.360009,387.988106 682.636151,387.509813 C682.912294,387.031521 683.523884,386.867646 684.002177,387.143788 Z M687.316186,389.686717 C687.70671,390.077241 687.70671,390.710406 687.316186,391.10093 C686.925662,391.491454 686.292497,391.491454 685.901972,391.10093 C685.511448,390.710406 685.511448,390.077241 685.901972,389.686717 C686.292497,389.296192 686.925662,389.296192 687.316186,389.686717 Z M689.859114,393.000726 C690.135257,393.479018 689.971382,394.090609 689.493089,394.366751 C689.014796,394.642893 688.403206,394.479018 688.127064,394.000726 C687.850921,393.522433 688.014796,392.910843 688.493089,392.6347 C688.971382,392.358558 689.582972,392.522433 689.859114,393.000726 Z M691.457666,396.859971 C691.600608,397.393437 691.284025,397.941774 690.750559,398.084716 C690.217093,398.227658 689.668756,397.911075 689.525814,397.377609 C689.382873,396.844143 689.699455,396.295806 690.232921,396.152864 C690.766387,396.009922 691.314724,396.326505 691.457666,396.859971 Z M692.002902,401.001451 C692.002902,401.553736 691.555187,402.001451 691.002902,402.001451 C690.450618,402.001451 690.002902,401.553736 690.002902,401.001451 C690.002902,400.449166 690.450618,400.001451 691.002902,400.001451 C691.555187,400.001451 692.002902,400.449166 692.002902,401.001451 Z M691.457666,405.142931 C691.314724,405.676398 690.766387,405.99298 690.232921,405.850038 C689.699455,405.707096 689.382873,405.158759 689.525814,404.625293 C689.668756,404.091827 690.217093,403.775245 690.750559,403.918187 C691.284025,404.061128 691.600608,404.609465 691.457666,405.142931 Z M689.859114,409.002177 C689.582972,409.480469 688.971382,409.644345 688.493089,409.368202 C688.014796,409.09206 687.850921,408.480469 688.127064,408.002177 C688.403206,407.523884 689.014796,407.360009 689.493089,407.636151 C689.971382,407.912294 690.135257,408.523884 689.859114,409.002177 Z M687.316186,412.316186 C686.925662,412.70671 686.292497,412.70671 685.901972,412.316186 C685.511448,411.925662 685.511448,411.292497 685.901972,410.901972 C686.292497,410.511448 686.925662,410.511448 687.316186,410.901972 C687.70671,411.292497 687.70671,411.925662 687.316186,412.316186 Z M684.002177,414.859114 C683.523884,415.135257 682.912294,414.971382 682.636151,414.493089 C682.360009,414.014796 682.523884,413.403206 683.002177,413.127064 C683.480469,412.850921 684.09206,413.014796 684.368202,413.493089 C684.644345,413.971382 684.480469,414.582972 684.002177,414.859114 Z M680.142931,416.457666 C679.609465,416.600608 679.061128,416.284025 678.918187,415.750559 C678.775245,415.217093 679.091827,414.668756 679.625293,414.525814 C680.158759,414.382873 680.707096,414.699455 680.850038,415.232921 C680.99298,415.766387 680.676398,416.314724 680.142931,416.457666 Z M676.001451,417.002902 C675.449166,417.002902 675.001451,416.555187 675.001451,416.002902 C675.001451,415.450618 675.449166,415.002902 676.001451,415.002902 C676.553736,415.002902 677.001451,415.450618 677.001451,416.002902 C677.001451,416.555187 676.553736,417.002902 676.001451,417.002902 Z M671.859971,416.457666 C671.326505,416.314724 671.009922,415.766387 671.152864,415.232921 C671.295806,414.699455 671.844143,414.382873 672.377609,414.525814 C672.911075,414.668756 673.227658,415.217093 673.084716,415.750559 C672.941774,416.284025 672.393437,416.600608 671.859971,416.457666 Z M668.000726,414.859114 C667.522433,414.582972 667.358558,413.971382 667.6347,413.493089 C667.910843,413.014796 668.522433,412.850921 669.000726,413.127064 C669.479018,413.403206 669.642893,414.014796 669.366751,414.493089 C669.090609,414.971382 668.479018,415.135257 668.000726,414.859114 Z M664.686717,412.316186 C664.296192,411.925662 664.296192,411.292497 664.686717,410.901972 C665.077241,410.511448 665.710406,410.511448 666.10093,410.901972 C666.491454,411.292497 666.491454,411.925662 666.10093,412.316186 C665.710406,412.70671 665.077241,412.70671 664.686717,412.316186 Z M662.143788,409.002177 C661.867646,408.523884 662.031521,407.912294 662.509813,407.636151 C662.988106,407.360009 663.599696,407.523884 663.875839,408.002177 C664.151981,408.480469 663.988106,409.09206 663.509813,409.368202 C663.031521,409.644345 662.41993,409.480469 662.143788,409.002177 Z M660.545236,405.142931 C660.402294,404.609465 660.718877,404.061128 661.252343,403.918187 C661.785809,403.775245 662.334146,404.091827 662.477088,404.625293 C662.62003,405.158759 662.303447,405.707096 661.769981,405.850038 C661.236515,405.99298 660.688178,405.676398 660.545236,405.142931 Z M660,401.001451 C660,400.449166 660.447715,400.001451 661,400.001451 C661.552285,400.001451 662,400.449166 662,401.001451 C662,401.553736 661.552285,402.001451 661,402.001451 C660.447715,402.001451 660,401.553736 660,401.001451 Z M660.545236,396.859971 C660.688178,396.326505 661.236515,396.009922 661.769981,396.152864 C662.303447,396.295806 662.62003,396.844143 662.477088,397.377609 C662.334146,397.911075 661.785809,398.227658 661.252343,398.084716 C660.718877,397.941774 660.402294,397.393437 660.545236,396.859971 Z M662.143788,393.000726 C662.41993,392.522433 663.031521,392.358558 663.509813,392.6347 C663.988106,392.910843 664.151981,393.522433 663.875839,394.000726 C663.599696,394.479018 662.988106,394.642893 662.509813,394.366751 C662.031521,394.090609 661.867646,393.479018 662.143788,393.000726 Z M664.686717,389.686717 C665.077241,389.296192 665.710406,389.296192 666.10093,389.686717 C666.491454,390.077241 666.491454,390.710406 666.10093,391.10093 C665.710406,391.491454 665.077241,391.491454 664.686717,391.10093 C664.296192,390.710406 664.296192,390.077241 664.686717,389.686717 Z M668.000726,387.143788 C668.479018,386.867646 669.090609,387.031521 669.366751,387.509813 C669.642893,387.988106 669.479018,388.599696 669.000726,388.875839 C668.522433,389.151981 667.910843,388.988106 667.6347,388.509813 C667.358558,388.031521 667.522433,387.41993 668.000726,387.143788 Z M671.859971,385.545236 C672.393437,385.402294 672.941774,385.718877 673.084716,386.252343 C673.227658,386.785809 672.911075,387.334146 672.377609,387.477088 C671.844143,387.62003 671.295806,387.303447 671.152864,386.769981 C671.009922,386.236515 671.326505,385.688178 671.859971,385.545236 Z" id="aperture"></path>
        </g>
    </g>
</svg>