<svg width="67" height="32" viewBox="0 0 67 32" xmlns="http://www.w3.org/2000/svg"><title>kap-logo</title><defs><linearGradient x1="0%" y1="50%" y2="50%" id="a"><stop stop-color="#9300FF" offset="0%"/><stop stop-color="#00FFBE" offset="100%"/></linearGradient></defs><g fill="none" fill-rule="evenodd"><path d="M16 32c8.837 0 16-7.163 16-16S24.837 0 16 0 0 7.163 0 16s7.163 16 16 16" fill="#FFF"/><path d="M16 30c7.732 0 14-6.268 14-14S23.732 2 16 2 2 8.268 2 16s6.268 14 14 14zm0-2c6.627 0 12-5.373 12-12S22.627 4 16 4 4 9.373 4 16s5.373 12 12 12z" fill="url(#a)"/><path d="M45.298 20.645l-2.59-3.847-.894.994v2.853H40V8h1.814v7.567l3.28-3.83h2.144l-3.425 3.83 3.61 5.078H45.3zm8.74 0v-1.01c-.416.373-.856.68-1.32.917-.464.238-.97.357-1.515.357-.45 0-.85-.07-1.198-.205-.348-.136-.64-.327-.877-.573-.236-.247-.416-.538-.54-.875-.124-.337-.186-.71-.186-1.117 0-.538.09-.988.266-1.35.177-.363.422-.658.734-.888.312-.23.684-.402 1.114-.518.43-.116.9-.2 1.413-.25l2.024-.196v-.416c0-.294-.044-.54-.13-.734-.088-.196-.215-.353-.38-.472-.167-.12-.372-.202-.617-.25-.244-.048-.52-.072-.83-.072-.3 0-.56.028-.78.085-.223.055-.416.13-.58.22-.162.09-.297.193-.404.31-.107.115-.19.23-.253.343l-1.434-.925c.107-.193.254-.38.443-.565.187-.184.422-.348.703-.493.28-.144.615-.262 1-.352.385-.09.83-.136 1.337-.136.62 0 1.16.05 1.628.153.467.102.857.272 1.17.51.31.237.546.556.703.955.16.4.237.896.237 1.49v6.055h-1.73zm-.084-4.33l-1.266.118c-.388.034-.732.088-1.033.16-.3.075-.554.177-.76.307-.205.13-.36.293-.468.49-.107.194-.16.433-.16.716 0 .47.124.803.37.998.25.195.597.293 1.047.293.175 0 .356-.03.544-.093.19-.063.38-.145.574-.247.194-.102.388-.222.582-.36.194-.14.384-.285.57-.438v-1.946zm12.266-.188c0 .623-.068 1.223-.203 1.8-.135.578-.346 1.088-.632 1.53-.287.44-.656.794-1.105 1.057-.45.263-.99.395-1.62.395-.478 0-.925-.085-1.342-.252-.416-.167-.798-.403-1.147-.71V24h-1.813V11.737h1.72v.89c.372-.338.787-.614 1.246-.827.458-.212.96-.318 1.505-.318.59 0 1.1.113 1.523.34.426.226.777.543 1.056.95.278.408.483.898.616 1.47.132.572.198 1.2.198 1.885zm-1.873.034c0-1-.165-1.762-.494-2.283-.33-.52-.814-.78-1.455-.78-.202 0-.406.025-.61.08-.207.053-.405.127-.596.22-.19.093-.374.2-.55.323-.173.12-.33.25-.47.386v4.314c.134.12.282.23.442.336.16.105.33.197.51.276.18.08.366.14.557.187.192.044.386.067.583.067.28 0 .55-.06.802-.18.253-.118.474-.303.662-.555.188-.252.34-.575.45-.968.114-.394.17-.868.17-1.423z" fill="#FFF"/></g></svg>
