<svg width="32" height="32" viewBox="0 0 32 32" xmlns="http://www.w3.org/2000/svg"><title>wulkano-logo</title><path d="M16 32C7.177 32 0 24.823 0 16S7.177 0 16 0s16 7.177 16 16-7.177 16-16 16zm0-30.316C8.106 1.684 1.684 8.106 1.684 16c0 7.894 6.422 14.316 14.316 14.316 7.894 0 14.316-6.422 14.316-14.316 0-7.894-6.422-14.316-14.316-14.316zm11.19 12.744l-4.246 6.35c-.003.003-.03.037-.035.04l-.127.09c-.022.016-.064.03-.09.03h-.936c-.034 0-.068-.01-.097-.03l-.08-.058c-.01-.007-.02-.016-.025-.026l-4.668-8.487c-.008-.015-.02-.027-.033-.037l-.088-.06c-.018-.012-.038-.02-.06-.02h-1.413c-.02 0-.04.008-.06.02l-.087.06c-.014.01-.025.022-.033.037l-4.668 8.487c-.006.01-.014.02-.024.026l-.08.058c-.03.02-.063.03-.097.03h-.935c-.027 0-.068-.014-.09-.03l-.127-.09c-.003-.003-.03-.037-.034-.04l-4.246-6.35c-.017-.026-.018-.06-.003-.086l.04-.07c.018-.032.052-.052.088-.052l1.597.002c.072 0 .144.017.21.05l.07.033c.03.015.058.038.077.067l2.664 3.83c.01.012.016.026.022.04l.08.22.046-.212c.005-.025.015-.05.027-.072l4.194-7.674c.014-.027.037-.048.065-.06l.1-.047c.014-.006.03-.01.045-.01h3.73c.015 0 .03.004.044.01l.1.046c.03.013.052.034.066.06l4.195 7.675c.013.023.023.047.028.072l.047.213.08-.22c.005-.015.012-.03.02-.042l2.666-3.828c.02-.03.047-.052.078-.067l.07-.034c.066-.03.138-.047.21-.048l1.597-.002c.036 0 .07.02.088.05l.04.072c.015.027.014.06-.003.086z" fill="#919191" fill-rule="evenodd"/></svg>
