<svg xmlns="http://www.w3.org/2000/svg" width="32" height="32" viewBox="0 0 32 32">
  <path fill="#FFFFFF" fill-opacity=".5" fill-rule="evenodd" d="M264,991 C255.177481,991 248,983.822519 248,975 C248,966.177481 255.177481,959 264,959 C272.822519,959 280,966.177481 280,975 C280,983.822519 272.822519,991 264,991 L264,991 Z M264,960.684148 C256.106074,960.684148 249.684148,967.106074 249.684148,975 C249.684148,982.893926 256.106074,989.315852 264,989.315852 C271.893926,989.315852 278.315852,982.893926 278.315852,975 C278.315852,967.106074 271.893926,960.684148 264,960.684148 L264,960.684148 Z M275.189926,973.428444 L270.944,979.776889 C270.941037,979.781037 270.913185,979.815407 270.909037,979.81837 L270.782815,979.907852 C270.760889,979.924444 270.719407,979.937481 270.692148,979.937481 L269.757037,979.938667 C269.722667,979.938667 269.688889,979.928 269.660444,979.907852 L269.578667,979.85037 C269.568593,979.843259 269.560889,979.83437 269.554963,979.823704 L264.886519,971.336593 C264.878815,971.32237 264.867556,971.309926 264.853926,971.300444 L264.766222,971.239407 C264.748444,971.227556 264.728296,971.221037 264.706963,971.221037 L263.293037,971.221037 C263.271704,971.221037 263.251556,971.227556 263.233778,971.239407 L263.146074,971.300444 C263.132444,971.309926 263.121185,971.32237 263.113481,971.336593 L258.445037,979.823704 C258.439111,979.83437 258.431407,979.843259 258.421333,979.85037 L258.339556,979.907852 C258.311111,979.928 258.277333,979.938667 258.242963,979.938667 L257.307852,979.937481 C257.280593,979.937481 257.239704,979.924444 257.217185,979.907852 L257.090963,979.81837 C257.086815,979.815407 257.058963,979.781037 257.056,979.776889 L252.810074,973.428444 C252.792889,973.40237 252.791704,973.369185 252.807111,973.341926 L252.847407,973.271407 C252.865185,973.24 252.898963,973.220444 252.935111,973.220444 L254.532148,973.222222 C254.604444,973.222815 254.675556,973.238815 254.740741,973.270815 L254.811852,973.305185 C254.843259,973.32 254.869926,973.343111 254.889481,973.371556 L257.553778,977.200889 C257.563259,977.213926 257.57037,977.228148 257.575704,977.242963 L257.654519,977.463407 L257.701926,977.250074 C257.707259,977.224593 257.716741,977.200889 257.728593,977.17837 L261.924148,969.503704 C261.93837,969.477037 261.961481,969.455704 261.989333,969.443259 L262.090667,969.397037 C262.104296,969.391111 262.119704,969.387556 262.134519,969.387556 L265.865481,969.387556 C265.880296,969.387556 265.895704,969.391111 265.909333,969.397037 L266.010667,969.443259 C266.038519,969.455704 266.06163,969.477037 266.075852,969.503704 L270.271407,977.17837 C270.283259,977.200889 270.292741,977.224593 270.298074,977.250074 L270.345481,977.463407 L270.424296,977.242963 C270.42963,977.228148 270.436741,977.213926 270.446222,977.200889 L273.110519,973.371556 C273.130074,973.343111 273.156741,973.32 273.188148,973.305185 L273.259259,973.270815 C273.324444,973.238815 273.395556,973.222815 273.467852,973.222222 L275.064889,973.220444 C275.101037,973.220444 275.134815,973.24 275.152593,973.271407 L275.192889,973.341926 C275.208296,973.369185 275.207111,973.40237 275.189926,973.428444 L275.189926,973.428444 Z" transform="translate(-248 -959)"/>
</svg>
