<?xml version="1.0" encoding="UTF-8"?>
<svg width="32px" height="32px" viewBox="0 0 32 32" version="1.1" xmlns="http://www.w3.org/2000/svg" xmlns:xlink="http://www.w3.org/1999/xlink">
    <!-- Generator: Sketch 41.2 (35397) - http://www.bohemiancoding.com/sketch -->
    <title>wulkano-logo</title>
    <desc>Created with Sketch.</desc>
    <defs></defs>
    <g id="Landing" stroke="none" stroke-width="1" fill="none" fill-rule="evenodd">
        <g id="Mobile-Portrait" transform="translate(-144.000000, -1278.000000)" fill="#919191">
            <path d="M160,1310 C151.177481,1310 144,1302.82252 144,1294 C144,1285.17748 151.177481,1278 160,1278 C168.822519,1278 176,1285.17748 176,1294 C176,1302.82252 168.822519,1310 160,1310 L160,1310 Z M160,1279.68415 C152.106074,1279.68415 145.684148,1286.10607 145.684148,1294 C145.684148,1301.89393 152.106074,1308.31585 160,1308.31585 C167.893926,1308.31585 174.315852,1301.89393 174.315852,1294 C174.315852,1286.10607 167.893926,1279.68415 160,1279.68415 L160,1279.68415 Z M171.189926,1292.42844 L166.944,1298.77689 C166.941037,1298.78104 166.913185,1298.81541 166.909037,1298.81837 L166.782815,1298.90785 C166.760889,1298.92444 166.719407,1298.93748 166.692148,1298.93748 L165.757037,1298.93867 C165.722667,1298.93867 165.688889,1298.928 165.660444,1298.90785 L165.578667,1298.85037 C165.568593,1298.84326 165.560889,1298.83437 165.554963,1298.8237 L160.886519,1290.33659 C160.878815,1290.32237 160.867556,1290.30993 160.853926,1290.30044 L160.766222,1290.23941 C160.748444,1290.22756 160.728296,1290.22104 160.706963,1290.22104 L159.293037,1290.22104 C159.271704,1290.22104 159.251556,1290.22756 159.233778,1290.23941 L159.146074,1290.30044 C159.132444,1290.30993 159.121185,1290.32237 159.113481,1290.33659 L154.445037,1298.8237 C154.439111,1298.83437 154.431407,1298.84326 154.421333,1298.85037 L154.339556,1298.90785 C154.311111,1298.928 154.277333,1298.93867 154.242963,1298.93867 L153.307852,1298.93748 C153.280593,1298.93748 153.239704,1298.92444 153.217185,1298.90785 L153.090963,1298.81837 C153.086815,1298.81541 153.058963,1298.78104 153.056,1298.77689 L148.810074,1292.42844 C148.792889,1292.40237 148.791704,1292.36919 148.807111,1292.34193 L148.847407,1292.27141 C148.865185,1292.24 148.898963,1292.22044 148.935111,1292.22044 L150.532148,1292.22222 C150.604444,1292.22281 150.675556,1292.23881 150.740741,1292.27081 L150.811852,1292.30519 C150.843259,1292.32 150.869926,1292.34311 150.889481,1292.37156 L153.553778,1296.20089 C153.563259,1296.21393 153.57037,1296.22815 153.575704,1296.24296 L153.654519,1296.46341 L153.701926,1296.25007 C153.707259,1296.22459 153.716741,1296.20089 153.728593,1296.17837 L157.924148,1288.5037 C157.93837,1288.47704 157.961481,1288.4557 157.989333,1288.44326 L158.090667,1288.39704 C158.104296,1288.39111 158.119704,1288.38756 158.134519,1288.38756 L161.865481,1288.38756 C161.880296,1288.38756 161.895704,1288.39111 161.909333,1288.39704 L162.010667,1288.44326 C162.038519,1288.4557 162.06163,1288.47704 162.075852,1288.5037 L166.271407,1296.17837 C166.283259,1296.20089 166.292741,1296.22459 166.298074,1296.25007 L166.345481,1296.46341 L166.424296,1296.24296 C166.42963,1296.22815 166.436741,1296.21393 166.446222,1296.20089 L169.110519,1292.37156 C169.130074,1292.34311 169.156741,1292.32 169.188148,1292.30519 L169.259259,1292.27081 C169.324444,1292.23881 169.395556,1292.22281 169.467852,1292.22222 L171.064889,1292.22044 C171.101037,1292.22044 171.134815,1292.24 171.152593,1292.27141 L171.192889,1292.34193 C171.208296,1292.36919 171.207111,1292.40237 171.189926,1292.42844 L171.189926,1292.42844 Z" id="wulkano-logo"></path>
        </g>
    </g>
</svg>