<?xml version="1.0" encoding="UTF-8"?>
<svg width="32px" height="32px" viewBox="0 0 32 32" version="1.1" xmlns="http://www.w3.org/2000/svg" xmlns:xlink="http://www.w3.org/1999/xlink">
    <!-- Generator: Sketch 50 (54983) - http://www.bohemiancoding.com/sketch -->
    <title>kap</title>
    <desc>Created with Sketch.</desc>
    <defs>
        <linearGradient x1="0%" y1="100%" x2="100%" y2="0%" id="linearGradient-1">
            <stop stop-color="#7247FF" offset="0%"></stop>
            <stop stop-color="#00FFBE" offset="100%"></stop>
        </linearGradient>
    </defs>
    <g id="Branding" stroke="none" stroke-width="1" fill="none" fill-rule="evenodd">
        <g id="Desktop-HD-Copy" transform="translate(-604.000000, -385.000000)" fill="url(#linearGradient-1)">
            <path d="M620,417 C611.163444,417 604,409.836556 604,401 C604,392.163444 611.163444,385 620,385 C628.836556,385 636,392.163444 636,401 C636,409.836556 628.836556,417 620,417 Z M620,415 C627.731986,415 634,408.731986 634,401 C634,393.268014 627.731986,387 620,387 C612.268014,387 606,393.268014 606,401 C606,408.731986 612.268014,415 620,415 Z" id="kap"></path>
        </g>
    </g>
</svg>